<?xml version="1.0" standalone="no"?><!DOCTYPE svg PUBLIC "-//W3C//DTD SVG 1.1//EN" "http://www.w3.org/Graphics/SVG/1.1/DTD/svg11.dtd"><svg t="1745900403288" class="icon" viewBox="0 0 1024 1024" version="1.1" xmlns="http://www.w3.org/2000/svg" p-id="6175" data-spm-anchor-id="a313x.search_index.0.i0.5fd93a81PZMT5i" xmlns:xlink="http://www.w3.org/1999/xlink" width="200" height="200"><path d="M984.9 223.6L668.4 74.5c-0.3-0.2-0.7-0.4-1.1-0.5-0.3-0.1-0.6-0.2-0.8-0.2-1.5-0.3-3 0-4.4 0.8L359.5 217.1 44 68.5c-1.8-0.8-3.9-0.7-5.5 0.3-1.7 1.1-2.7 2.9-2.7 4.9v713.6c0 2.2 1.2 4.2 3.2 5.2l317 157.3c0.9 0.6 2 0.9 3.1 0.9 0.9 0 1.7-0.2 2.6-0.6l303.6-150.6 314.6 156.1c0.8 0.4 1.7 0.6 2.6 0.6 1.1 0 2.1-0.3 3-0.9 1.7-1.1 2.7-2.9 2.7-4.9V228.8c0-2.2-1.3-4.3-3.3-5.2zM659.5 105v667.8l-295 146.3V244l295-139zM338.1 911.4L62.2 774.5V106.2l275.9 130v675.2z m623.7 5.6L685.9 780.1V111.9l275.9 130V917z" p-id="6176" fill="#515151"></path></svg>