<?xml version="1.0" standalone="no"?><!DOCTYPE svg PUBLIC "-//W3C//DTD SVG 1.1//EN" "http://www.w3.org/Graphics/SVG/1.1/DTD/svg11.dtd"><svg t="1746880778587" class="icon" viewBox="0 0 1024 1024" version="1.1" xmlns="http://www.w3.org/2000/svg" p-id="2725" xmlns:xlink="http://www.w3.org/1999/xlink" width="200" height="200"><path d="M896 64a64 64 0 0 1 64 64v768a64 64 0 0 1-64 64H128a64 64 0 0 1-64-64V128a64 64 0 0 1 64-64h768z m-12.8 76.8H140.8v742.4h742.4V140.8z m-640 478.72c17.92 0 33.28 15.36 33.28 33.28v94.72H371.2c17.92 0 33.28 15.36 33.28 33.28s-15.36 33.28-33.28 33.28h-128a33.92 33.92 0 0 1-33.28-33.28v-128c0-17.92 15.36-33.28 33.28-33.28z m537.6 0c17.92 0 33.28 15.36 33.28 33.28v128c0 17.92-15.36 33.28-33.28 33.28h-128a33.92 33.92 0 0 1-33.28-33.28c0-17.92 15.36-33.28 33.28-33.28h94.72V652.8c0-17.92 15.36-33.28 33.28-33.28z m0-409.6c17.92 0 33.28 15.36 33.28 33.28v128c0 17.92-15.36 33.28-33.28 33.28a33.92 33.92 0 0 1-33.28-33.28V276.48H652.8a33.92 33.92 0 0 1-33.28-33.28c0-17.92 15.36-33.28 33.28-33.28h128z m-409.6 0c17.92 0 33.28 15.36 33.28 33.28s-15.36 33.28-33.28 33.28H276.48V371.2c0 17.92-15.36 33.28-33.28 33.28a33.92 33.92 0 0 1-33.28-33.28v-128c0-17.92 15.36-33.28 33.28-33.28h128z" fill="#262626" p-id="2726"></path></svg>