<?xml version="1.0" standalone="no"?><!DOCTYPE svg PUBLIC "-//W3C//DTD SVG 1.1//EN" "http://www.w3.org/Graphics/SVG/1.1/DTD/svg11.dtd"><svg t="1744548803654" class="icon" viewBox="0 0 1024 1024" version="1.1" xmlns="http://www.w3.org/2000/svg" p-id="5861" xmlns:xlink="http://www.w3.org/1999/xlink" width="128" height="128"><path d="M132 898.7C98.5 842.1 77 780.6 68 716c-8.7-62.4-5.3-125 10-186.1 15.3-61.1 41.9-117.7 78.8-168.2 38.3-52.3 86.2-95.6 142.3-128.8 56.1-33.2 117.2-54.3 181.4-62.7 62-8.1 124.4-4.1 185.3 12 60.9 16 117.4 43.2 167.9 80.9 52.3 39 95.7 87.4 129.2 144.1l-60.3 35.6C846 346.7 755.6 278.3 648.2 250c-107.2-28.2-218.5-12.8-313.3 43.3C240 349.4 173 439.5 146 547c-27 107.7-10.6 219.9 46.3 316.1L132 898.7z" fill="#424242" p-id="5862"></path></svg>