<?xml version="1.0" standalone="no"?><!DOCTYPE svg PUBLIC "-//W3C//DTD SVG 1.1//EN" "http://www.w3.org/Graphics/SVG/1.1/DTD/svg11.dtd"><svg t="1741766549931" class="icon" viewBox="0 0 1024 1024" version="1.1" xmlns="http://www.w3.org/2000/svg" p-id="3669" xmlns:xlink="http://www.w3.org/1999/xlink" width="200" height="200"><path d="M836 352.608l125.568 85.76v292.288c-40.288 22.4-82.24 41.6-125.568 57.408v83.936l-259.904 138.624L44 872V152L406.72 47.936 836 152v200.608z" p-id="3670" data-spm-anchor-id="a313x.search_index.0.i0.51063a81zXUyJC" class="selected" fill="#e6e6e6"></path><path d="M800 207.2l-216 115.2v117.6h-36V319.36L80 197.376v647.264l468 121.28V800h36v165.6l216-115.2v-643.2z m36 124.8H800V800h36v72l-259.904 138.624L44 872V152L406.72 47.936 836 152v180zM114.848 170.016l457.92 117.28 207.712-110.88-372.448-91.136-293.184 84.736z" p-id="3671"></path><path d="M796.864 315.2l9.44-4.736 173.28 118.4v312.448l-9.376 5.152c-110.656 60.64-210.24 91.168-298.88 91.168-89.248 0-177.536-30.912-264.64-92.256l-7.68-5.376V419.84l18.4 0.48 162.496 1.6 216.96-106.72z m146.688 157.376c-100.064 51.264-190.784 77.056-272.256 77.056-79.552 0-158.4-24.576-236.256-73.376v244.96c78.752 53.76 157.44 80.416 236.256 80.416 79.552 0 170.304-27.136 272.256-81.696v-247.328z m-272.256 41.056c76.096 0 162.496-24.864 259.136-74.752l-126.912-86.688-215.456 108.576-113.696-2.912c65.632 37.248 131.232 55.776 196.928 55.776z" p-id="3672"></path></svg>