<?xml version="1.0" standalone="no"?><!DOCTYPE svg PUBLIC "-//W3C//DTD SVG 1.1//EN" "http://www.w3.org/Graphics/SVG/1.1/DTD/svg11.dtd"><svg t="1744550801479" class="icon" viewBox="0 0 1024 1024" version="1.1" xmlns="http://www.w3.org/2000/svg" p-id="129861" xmlns:xlink="http://www.w3.org/1999/xlink" width="128" height="128"><path d="M332.8 51.2a76.8 76.8 0 0 1 76.4416 69.4272L409.6 128v232.9088l164.7616-164.6592a76.8 76.8 0 0 1 102.7584-5.2736l5.8368 5.2736 144.7936 144.7936a76.8 76.8 0 0 1 5.2736 102.8096l-5.2736 5.7856L663.04 614.4H896a76.8 76.8 0 0 1 76.4416 69.4272L972.8 691.2v204.8a76.8 76.8 0 0 1-69.4272 76.4416L896 972.8h-307.2c-17.4592 0-33.5872-5.8368-46.4896-15.6672l-4.8128-4.096a62.464 62.464 0 0 1-59.648 8.3456l-5.888-2.56-107.3152-53.6576a64 64 0 0 1 4.352-116.48l6.2976-2.2016 2.6624-0.768-2.816-5.7344a307.456 307.456 0 0 0-247.04-164.5056l-12.8-0.8192L102.4 614.4H51.2V128a76.8 76.8 0 0 1 69.4272-76.4416L128 51.2h204.8zM614.4 819.2h-51.2v76.8a25.6 25.6 0 0 0 20.992 25.1904l4.608 0.4096H665.6v-51.2h-51.2v-51.2z m153.6 51.2h-51.2v51.2h51.2v-51.2z m153.6-51.2h-51.2v51.2h-51.2v51.2h76.8l4.608-0.4096a25.6 25.6 0 0 0 20.5824-20.5824L921.6 896V819.2zM102.4 512v51.2c154.5728 0 286.208 97.792 336.5888 234.9568l5.0176 14.7456 1.9456 6.2464-56.32 16.4864a12.8 12.8 0 0 0-4.9152 21.8112l2.816 1.9456 107.3152 53.6576 2.816 0.9728 2.9184 0.2048 3.072-0.512a11.5712 11.5712 0 0 0 7.6288-8.448l0.256-3.072-0.768-12.7488a409.6 409.6 0 0 0-395.264-377.2416L102.4 512z m716.8 256h-153.6v51.2h153.6v-51.2z m-153.6-102.4h-76.8a25.6 25.6 0 0 0-25.1904 20.992L563.2 691.2V768h51.2v-51.2h51.2v-51.2z m230.4 0H819.2v51.2h51.2v51.2h51.2v-76.8a25.6 25.6 0 0 0-20.992-25.1904L896 665.6zM768 665.6h-51.2v51.2h51.2v-51.2z m-175.5648-125.44l-36.1984 36.1984-36.1984-36.1984-36.1984 36.1984 55.9616 55.808 1.8944 1.4848a25.6 25.6 0 0 0 29.0816 0l3.584-2.9696 54.272-54.272-36.1984-36.2496z m72.3968-72.3968l-36.1984 36.1984 36.1984 36.1984 36.1984-36.1984-36.1984-36.1984zM447.6416 395.3664l-54.3232 54.272a25.6 25.6 0 0 0-2.9696 32.6656l2.9696 3.584 54.272 54.272 36.2496-36.1984-36.1984-36.1984 36.1984-36.1984-36.1984-36.1984z m180.992-36.2496l-108.5952 108.6464 36.1472 36.1984 108.6464-108.5952-36.1984-36.2496z m108.5952-36.1472l-36.1984 36.1984 36.1984 36.1984-36.1984 36.1984 36.1984 36.1984 54.3232-54.272a25.6 25.6 0 0 0 2.9696-32.6656l-2.9696-3.584-54.272-54.272zM332.8 102.4h-204.8a25.6 25.6 0 0 0-25.1904 20.992L102.4 128v307.2a25.6 25.6 0 0 0 20.992 25.1904L128 460.8h204.8l4.608-0.4096a25.6 25.6 0 0 0 20.5824-20.5824L358.4 435.2v-307.2a25.6 25.6 0 0 0-20.992-25.1904L332.8 102.4z m187.2384 220.5696l-36.1984 36.1984 36.1984 36.1984 36.1984-36.1984-36.1984-36.1984zM256 204.8v153.6H204.8V204.8h51.2z m374.784 20.224h-4.3008a25.4976 25.4976 0 0 0-12.3904 4.4544l-3.584 2.9696-54.272 54.272 36.1984 36.2496 36.1984-36.1984 36.1984 36.1984 36.1984-36.1984-54.272-54.3232a25.4976 25.4976 0 0 0-15.9232-7.424z" fill="#FFFFFF" p-id="129862"></path><path d="M614.4 819.2v51.2h51.2v51.2h-76.8a25.6 25.6 0 0 1-25.6-25.6V819.2h51.2z m153.6 51.2v51.2h-51.2v-51.2h51.2z m153.6-51.2v76.8a25.6 25.6 0 0 1-25.6 25.6H819.2v-51.2h51.2v-51.2h51.2zM102.4 512a409.6 409.6 0 0 1 408.3712 377.4464l0.768 12.7488a11.52 11.52 0 0 1-16.6912 10.8544L387.584 859.392a12.8 12.8 0 0 1 2.1504-23.7568L445.952 819.2A358.5536 358.5536 0 0 0 102.4 563.2v-51.1488z m563.2 153.6v51.2h-51.2v51.2h-51.2v-76.8a25.6 25.6 0 0 1 25.6-25.6H665.6z m230.4 0a25.6 25.6 0 0 1 25.6 25.6V768h-51.2v-51.2h-51.2v-51.2h76.8zM768 665.6v51.2h-51.2v-51.2h51.2z m-175.5648-125.44l36.1984 36.1984-54.272 54.3232a25.6 25.6 0 0 1-36.2496 0l-54.272-54.272 36.1984-36.2496 36.1984 36.1984 36.1984-36.1984zM447.6416 395.3664l36.1984 36.1984-36.1984 36.1984 36.1984 36.1984-36.1984 36.1984-54.3232-54.272a25.6 25.6 0 0 1 0-36.2496l54.272-54.272z m217.1904 72.3968l36.1984 36.1984-36.1984 36.1984-36.1984-36.1984 36.1984-36.1984zM737.28 322.9696l54.3232 54.272a25.6 25.6 0 0 1 0 36.1984L737.28 467.7632l-36.2496-36.1984 36.1984-36.1984-36.1984-36.1984 36.1984-36.1984zM332.8 102.4a25.6 25.6 0 0 1 25.6 25.6v307.2a25.6 25.6 0 0 1-25.6 25.6h-204.8a25.6 25.6 0 0 1-25.6-25.6v-307.2a25.6 25.6 0 0 1 25.6-25.6h204.8z m187.2384 220.5696l36.1984 36.1984-36.1984 36.1984-36.1984-36.1984 36.1984-36.1984zM256 204.8H204.8v153.6h51.2V204.8z m390.7584 27.648l54.272 54.272-36.1984 36.2496-36.1984-36.1984-36.1984 36.1984-36.1984-36.1984 54.272-54.3232a25.6 25.6 0 0 1 36.2496 0z" fill="#000000" p-id="129863"></path></svg>