<?xml version="1.0" standalone="no"?><!DOCTYPE svg PUBLIC "-//W3C//DTD SVG 1.1//EN" "http://www.w3.org/Graphics/SVG/1.1/DTD/svg11.dtd"><svg t="1737378614321" class="icon" viewBox="0 0 1138 1024" version="1.1" xmlns="http://www.w3.org/2000/svg" p-id="11684" xmlns:xlink="http://www.w3.org/1999/xlink" width="222.265625" height="200"><path d="M1137.36535 837.745198L917.793417 152.53626C895.715801 63.422971 753.616232 0 568.967075 0S241.014115 63.02156 220.542143 152.134849L0.167388 837.745198a69.44414 69.44414 0 0 0 0 9.633869c0 116.00784 286.206194 176.620933 568.799687 176.620933s569.201098-60.613093 569.201097-176.620933a69.845551 69.845551 0 0 0-0.802822-9.633869zM568.967075 55.394747c185.050568 0 298.24853 70.648373 298.24853 120.423364s-113.599373 120.423363-298.24853 120.423363-298.24853-70.648373-298.24853-120.423363 113.599373-120.423363 298.24853-120.423364z m-321.128969 195.48726l10.436691 10.03528c59.81027 57.803214 176.219522 92.324579 312.297923 92.324579s252.889063-34.521364 312.297922-92.324579l10.436692-10.03528 160.564484 498.954136-18.866327-8.028225c-103.162681-44.556644-276.973736-71.049784-465.235594-71.049784s-361.27009 26.49314-465.235594 71.049784l-18.866327 8.028225z m321.128969 718.124657c-314.70639 0-515.411995-71.852607-515.411995-120.423363V842.963544l2.408467-7.225402c26.894551-45.760878 207.529596-111.190906 512.200705-111.190906s485.306154 65.028616 511.397884 109.18385l3.612701 12.443747c0.802822 50.577813-199.902783 122.831831-514.207762 122.831831z" fill="#ffffff" p-id="11685" data-spm-anchor-id="a313x.search_index.0.i9.2ad63a81E6HOIa" class=""></path><path d="M568.967075 298.24853c185.050568 0 298.24853-70.648373 298.24853-120.423363s-113.599373-120.423363-298.24853-120.423364-298.24853 70.648373-298.24853 120.423364 113.599373 120.423363 298.24853 120.423363z" fill="#2c2c2c" p-id="11686" data-spm-anchor-id="a313x.search_index.0.i7.2ad63a81E6HOIa" class="selected"></path><path d="M568.967075 670.758134c188.261858 0 361.27009 26.49314 465.235594 71.049784l18.866327 8.028225-160.564485-498.954136-9.232458 10.03528c-59.408859 57.803214-176.219522 92.324579-312.297922 92.324579s-252.889063-34.521364-312.297922-92.324579l-10.436692-10.03528-160.564484 498.954136 18.866326-8.028225c100.352803-44.556644 274.163857-71.049784 462.425716-71.049784z" fill="#2c2c2c" p-id="11687" data-spm-anchor-id="a313x.search_index.0.i6.2ad63a81E6HOIa" class="selected"></path><path d="M568.967075 725.75147c-305.072521 0-485.707566 65.028616-512.200706 111.190906l-2.408467 6.021168v3.211289c0 49.373579 200.705606 120.423363 515.411995 120.423364S1083.977659 896.752646 1083.977659 847.379067l-3.612701-12.443748c-25.690318-43.753822-206.325363-109.183849-511.397883-109.183849z" fill="#2c2c2c" p-id="11688" data-spm-anchor-id="a313x.search_index.0.i8.2ad63a81E6HOIa" class="selected"></path></svg>