<?xml version="1.0" standalone="no"?><!DOCTYPE svg PUBLIC "-//W3C//DTD SVG 1.1//EN" "http://www.w3.org/Graphics/SVG/1.1/DTD/svg11.dtd"><svg t="1737378492360" class="icon" viewBox="0 0 1024 1024" version="1.1" xmlns="http://www.w3.org/2000/svg" p-id="5540" xmlns:xlink="http://www.w3.org/1999/xlink" width="200" height="200"><path d="M565.5359375 164.500625a549.958125 549.958125 0 0 0-54.8475 0c-149.49 0-248.353125 57.5840625-248.353125 114.48375l1.14093749 11.630625c9.6928125 54.8475 107.4140625 107.4140625 247.55437501 107.4140625 149.4909375 0 249.15-64.65375001 249.15-116.7646875-0.1125-52.11-75.94124999-105.133125-194.64375-116.76375z" p-id="5541"></path><path d="M510.575 453.333125c-116.765625 0-214.03125001-35.4628125-256.10625001-84.8371875v358.8459375c0 57.241875 102.73874999 118.7025 256.90406251 118.7025s256.905-61.460625 256.905-118.7025v-7.7540625l1.14-354.9684375c-41.6203125 49.715625-142.078125 88.71375001-258.84375 88.71375z" p-id="5542"></path></svg>