<?xml version="1.0" standalone="no"?><!DOCTYPE svg PUBLIC "-//W3C//DTD SVG 1.1//EN" "http://www.w3.org/Graphics/SVG/1.1/DTD/svg11.dtd"><svg t="1744549750998" class="icon" viewBox="0 0 1024 1024" version="1.1" xmlns="http://www.w3.org/2000/svg" p-id="77439" xmlns:xlink="http://www.w3.org/1999/xlink" width="128" height="128"><path d="M204 848h168c15.5 0 28-12.5 28-28V652c0-15.5-12.5-28-28-28H204c-15.5 0-28 12.5-28 28v168c0 15.5 12.5 28 28 28z" fill="#666666" p-id="77440"></path><path d="M957.9 81.299C953.6 70.801 943.4 64 932 64H540c-7.4 0-14.5 3-19.799 8.2L72.2 520.2c-6.8 6.8-8.2 14-8.2 19.8v392.001C64 947.501 76.5 960 92 960h392c7.8 0 14.8-3.199 19.799-8.2l448.001-448a27.931 27.931 0 0 0 8.2-19.799v-392c0-3.601-0.7-7.202-2.1-10.702zM456 904.001H119.999V568H456v336.001zM472.4 512H159.6l392-392h312.8l-392 392zM904 472.401l-392 392V551.599l392-391.998v312.8z" fill="#666666" p-id="77441"></path></svg>