<?xml version="1.0" standalone="no"?><!DOCTYPE svg PUBLIC "-//W3C//DTD SVG 1.1//EN" "http://www.w3.org/Graphics/SVG/1.1/DTD/svg11.dtd"><svg t="1744691625060" class="icon" viewBox="0 0 1024 1024" version="1.1" xmlns="http://www.w3.org/2000/svg" p-id="5317" width="256" height="256" xmlns:xlink="http://www.w3.org/1999/xlink"><path d="M367.802182 582.609455v-0.837819c27.182545 1.768727 40.494545-12.194909 40.494545-41.472 0-17.314909-5.864727-32.628364-18.152727-46.592a105.192727 105.192727 0 0 0-46.917818-30.068363c-19.037091-6.330182-35.700364-8.052364-49.850182-4.701091v38.539636c12.986182-5.538909 26.065455-5.911273 39.796364-1.210182 20.805818 7.261091 31.650909 19.874909 31.650909 38.912 0 19.874909-13.824 25.413818-40.96 16.523637l-16.756364-5.911273v35.607273l18.152727 5.911272c14.522182 4.654545 25.6 11.403636 33.931637 19.456 8.145455 8.052364 11.915636 17.687273 11.915636 27.927273 0 10.24-3.304727 16.896-10.053818 20.293818-6.702545 3.351273-16.058182 2.932364-27.508364-0.837818a104.587636 104.587636 0 0 1-47.616-32.581818v41.053091c12.613818 11.822545 29.789091 21.224727 50.688 28.346182 23.877818 8.052364 42.402909 8.052364 56.599273 1.210182 14.149818-7.261091 21.271273-21.224727 21.271273-42.356364 0-13.963636-4.189091-27.089455-12.660364-39.284364a80.384 80.384 0 0 0-34.024727-27.927272z" p-id="5318" fill="#13227a"></path><path d="M511.953455 139.636364L139.636364 245.434182v532.247273l372.317091 105.797818 372.31709-105.797818V245.434182l-372.363636-105.797818z m270.242909 418.397091c0 40.122182-9.355636 74.938182-28.253091 104.02909-19.037091 29.137455-43.613091 47.429818-73.402182 55.063273l-65.536 16.523637v-260.654546l65.908364-16.477091c67.490909-16.942545 101.282909 16.896 101.282909 101.469091z m-15.592728-276.200728L511.953455 354.210909l-254.603637-72.378182 254.603637-72.378182 254.603636 72.378182zM199.214545 724.805818V335.127273l312.73891 88.901818v389.632l-312.785455-88.901818z" p-id="5319" fill="#13227a"></path><path d="M677.236364 502.551273l-21.969455 5.538909v169.565091l22.341818-5.492364c19.362909-4.701091 34.257455-16.523636 45.381818-35.188364 11.170909-18.664727 16.430545-41.099636 16.430546-67.67709 0-25.786182-5.585455-44.823273-17.128727-56.273455-11.636364-11.264-26.530909-14.615273-45.056-10.472727z" p-id="5320" fill="#13227a"></path></svg>