<?xml version="1.0" standalone="no"?><!DOCTYPE svg PUBLIC "-//W3C//DTD SVG 1.1//EN" "http://www.w3.org/Graphics/SVG/1.1/DTD/svg11.dtd"><svg t="1744549894370" class="icon" viewBox="0 0 1024 1024" version="1.1" xmlns="http://www.w3.org/2000/svg" p-id="81835" data-spm-anchor-id="a313x.search_index.0.i60.1c023a816jMzOF" xmlns:xlink="http://www.w3.org/1999/xlink" width="128" height="128"><path d="M492.8 69.12l-354.7136 204.8a38.4 38.4 0 0 0-19.2 33.28v409.6a38.4 38.4 0 0 0 19.2 33.28l354.7136 204.8a38.4 38.4 0 0 0 38.4 0l354.7136-204.8a38.4 38.4 0 0 0 19.2-33.28V444.16a38.4 38.4 0 0 0-3.4304-15.872l-82.2272-181.6576a38.4 38.4 0 0 0-13.824-16.2304l-32.7168-21.6064-241.7152-139.6736a38.4 38.4 0 0 0-38.4 0z m19.1488 77.6192l220.6208 127.3344 21.4528 14.2336 74.2912 164.1984v242.0736l-316.3648 182.6816-316.3136-182.6304V329.3184l316.3136-182.5792z" fill="#2c2c2c" p-id="81836" data-spm-anchor-id="a313x.search_index.0.i57.1c023a816jMzOF" class=""></path><path d="M758.528 224.9216l-354.7136 204.8a38.4 38.4 0 0 0-15.4112 49.8176l88.9344 185.9584a38.4 38.4 0 0 0 53.8624 16.6912l354.7136-204.8a38.4 38.4 0 0 0 15.4624-49.8176l-88.9856-186.0096a38.4 38.4 0 0 0-53.8624-16.64z m2.4576 87.1936l55.7568 116.5312-288.0512 166.2976-55.7056-116.5312 288-166.2976z" fill="#2c2c2c" p-id="81837" data-spm-anchor-id="a313x.search_index.0.i56.1c023a816jMzOF" class=""></path><path d="M760.9856 312.1152l55.7568 116.5312-288.0512 166.2976-55.7056-116.5312z" fill="#bfbfbf" p-id="81838" data-spm-anchor-id="a313x.search_index.0.i59.1c023a816jMzOF" class="selected"></path><path d="M118.8864 307.2v409.6a38.4 38.4 0 0 0 19.2 33.28l354.7136 204.8A38.4 38.4 0 0 0 550.4 921.6v-272.64a38.4 38.4 0 0 0-3.4816-15.9744L461.7216 446.8224a38.4 38.4 0 0 0-15.7184-17.2544L176.4864 273.92A38.4 38.4 0 0 0 118.8864 307.2zM195.584 373.6576l201.3184 116.224 76.5952 167.2704V855.04l-277.9136-160.4096V373.6576z" fill="#2c2c2c" p-id="81839" data-spm-anchor-id="a313x.search_index.0.i55.1c023a816jMzOF" class=""></path></svg>