<?xml version="1.0" standalone="no"?><!DOCTYPE svg PUBLIC "-//W3C//DTD SVG 1.1//EN" "http://www.w3.org/Graphics/SVG/1.1/DTD/svg11.dtd"><svg t="1744550490291" class="icon" viewBox="0 0 1024 1024" version="1.1" xmlns="http://www.w3.org/2000/svg" p-id="111849" data-spm-anchor-id="a313x.search_index.0.i67.1c023a816jMzOF" xmlns:xlink="http://www.w3.org/1999/xlink" width="128" height="128"><path d="M91.363556 362.325333l-31.857778-47.217777 380.017778-256.170667h235.064888a256 256 0 0 1 255.715556 243.939555l0.284444 12.060445v438.044444l-256.113777 212.309334-36.295111-43.804445 235.52-195.242666v-411.306667A199.111111 199.111111 0 0 0 685.511111 116.053333l-10.922667-0.284444-217.656888-0.056889-365.568 246.556444z" fill="#2c2c2c" p-id="111850" data-spm-anchor-id="a313x.search_index.0.i68.1c023a816jMzOF" class=""></path><path d="M762.595556 91.022222a28.444444 28.444444 0 0 1 35.84 43.861334l-3.982223 3.242666L425.528889 387.527111a28.444444 28.444444 0 0 1-35.84-43.861333l3.982222-3.242667L762.538667 91.022222zM914.375111 378.083556a28.444444 28.444444 0 0 1-4.266667 39.992888L637.155556 638.179556a28.444444 28.444444 0 1 1-35.726223-44.316445l272.952889-220.046222a28.444444 28.444444 0 0 1 39.992889 4.266667z" fill="#2c2c2c" p-id="111851" data-spm-anchor-id="a313x.search_index.0.i66.1c023a816jMzOF" class=""></path><path d="M59.335111 314.936889v284.785778h196.551111a113.777778 113.777778 0 0 1 113.777778 113.777777v253.724445h304.924444V542.435556a227.555556 227.555556 0 0 0-227.555555-227.555556H59.335111z" fill="#2c2c2c" p-id="111852" data-spm-anchor-id="a313x.search_index.0.i65.1c023a816jMzOF" class=""></path></svg>