<?xml version="1.0" standalone="no"?><!DOCTYPE svg PUBLIC "-//W3C//DTD SVG 1.1//EN" "http://www.w3.org/Graphics/SVG/1.1/DTD/svg11.dtd"><svg t="1744550683587" class="icon" viewBox="0 0 1024 1024" version="1.1" xmlns="http://www.w3.org/2000/svg" p-id="126547" xmlns:xlink="http://www.w3.org/1999/xlink" width="128" height="128"><path d="M422.4 320h-332.8V768l0.4096 8.0896C98.048 841.8816 171.8272 883.2 256 883.2c89.1392 0 166.4-46.336 166.4-115.2V320z m-256 76.8h179.2V768c0 15.9744-37.376 38.4-89.6 38.4-50.0736 0-87.552-20.992-89.5488-37.376l-0.1024-3.3792 0.0512-368.8448z" fill="#595959" p-id="126548"></path><path d="M166.4 396.8h179.2V768c0 15.9744-37.376 38.4-89.6 38.4-50.0736 0-87.552-20.992-89.5488-37.376l-0.1024-3.3792 0.0512-368.8448z" fill="#CCCCCC" p-id="126549" data-spm-anchor-id="a313x.search_index.0.i72.1c023a816jMzOF" class="selected"></path><path d="M256 217.6c-89.1392 0-166.4 46.336-166.4 115.2S166.8608 448 256 448s166.4-46.336 166.4-115.2S345.1392 217.6 256 217.6z m0 76.8c52.224 0 89.6 22.4256 89.6 38.4s-37.376 38.4-89.6 38.4-89.6-22.4256-89.6-38.4 37.376-38.4 89.6-38.4z" fill="#595959" p-id="126550" data-spm-anchor-id="a313x.search_index.0.i73.1c023a816jMzOF" class="selected"></path><path d="M256 294.4c52.224 0 89.6 22.4256 89.6 38.4s-37.376 38.4-89.6 38.4-89.6-22.4256-89.6-38.4 37.376-38.4 89.6-38.4z" fill="#CCCCCC" p-id="126551"></path><path d="M934.4 320h-332.8V768l0.4096 8.0896c8.0384 65.792 81.8176 107.1104 165.9904 107.1104 89.1392 0 166.4-46.336 166.4-115.2V320z m-256 76.8h179.2V768c0 15.9744-37.376 38.4-89.6 38.4-50.0736 0-87.552-20.992-89.5488-37.376l-0.1024-3.3792 0.0512-368.8448z" fill="#595959" p-id="126552"></path><path d="M768 217.6c-89.1392 0-166.4 46.336-166.4 115.2S678.8608 448 768 448s166.4-46.336 166.4-115.2S857.1392 217.6 768 217.6z m0 76.8c52.224 0 89.6 22.4256 89.6 38.4s-37.376 38.4-89.6 38.4-89.6-22.4256-89.6-38.4 37.376-38.4 89.6-38.4z" fill="#595959" p-id="126553"></path><path d="M768 294.4c52.224 0 89.6 22.4256 89.6 38.4s-37.376 38.4-89.6 38.4-89.6-22.4256-89.6-38.4 37.376-38.4 89.6-38.4z" fill="#FFFFFF" p-id="126554"></path><path d="M486.4 179.2v51.2a25.6 25.6 0 0 0 51.2 0v-51.2a25.6 25.6 0 0 0-51.2 0z m0 153.6v51.2a25.6 25.6 0 0 0 51.2 0v-51.2a25.6 25.6 0 0 0-51.2 0z m0 153.6v51.2a25.6 25.6 0 0 0 51.2 0v-51.2a25.6 25.6 0 0 0-51.2 0z m0 153.6v51.2a25.6 25.6 0 1 0 51.2 0v-51.2a25.6 25.6 0 0 0-51.2 0z m0 153.6v51.2a25.6 25.6 0 1 0 51.2 0v-51.2a25.6 25.6 0 1 0-51.2 0z" fill="#595959" p-id="126555"></path></svg>