<?xml version="1.0" standalone="no"?><!DOCTYPE svg PUBLIC "-//W3C//DTD SVG 1.1//EN" "http://www.w3.org/Graphics/SVG/1.1/DTD/svg11.dtd"><svg t="1744549789604" class="icon" viewBox="0 0 1024 1024" version="1.1" xmlns="http://www.w3.org/2000/svg" p-id="78507" data-spm-anchor-id="a313x.search_index.0.i46.1c023a816jMzOF" xmlns:xlink="http://www.w3.org/1999/xlink" width="128" height="128"><path d="M690.9952 896a10.24 10.24 0 0 1-10.24-10.24v-81.92a10.24 10.24 0 0 1 20.48 0v81.92a10.24 10.24 0 0 1-10.24 10.24z m0-163.84a10.24 10.24 0 0 1-10.24-10.24v-81.92a10.24 10.24 0 1 1 20.48 0v81.92a10.24 10.24 0 0 1-10.24 10.24z m0-163.84a10.24 10.24 0 0 1-10.24-10.24v-81.92a10.24 10.24 0 1 1 20.48 0v81.92a10.24 10.24 0 0 1-10.24 10.24z m-19.8656-160.256a10.24 10.24 0 0 1-8.8064-5.0176 130.048 130.048 0 0 0-55.296-50.4832 10.24 10.24 0 1 1 8.9088-18.432 150.4256 150.4256 0 0 1 64 58.368 10.24 10.24 0 0 1-8.8064 15.4624z m-139.4688-68.1984h-81.92a10.24 10.24 0 1 1 0-20.48h81.92a10.24 10.24 0 1 1 0 20.48z m-163.84 0h-81.92a10.24 10.24 0 0 1 0-20.48h81.92a10.24 10.24 0 1 1 0 20.48z m-163.84 0h-81.92a10.24 10.24 0 0 1 0-20.48h81.92a10.24 10.24 0 0 1 0 20.48z" fill="#2c2c2c" p-id="78508" data-spm-anchor-id="a313x.search_index.0.i48.1c023a816jMzOF" class="selected"></path><path d="M552.2432 186.2656h-296.96c-39.6288 0-69.4272 61.44-69.4272 143.36s29.9008 143.36 69.4272 143.36h292.352V752.64c0 39.6288 61.44 69.4272 143.36 69.4272s143.36-29.9008 143.36-69.4272V468.3776a282.5216 282.5216 0 0 0-282.112-282.112z m-346.2144 143.36c0-72.3968 25.8048-122.88 48.9472-122.88s48.9472 50.4832 48.9472 122.88-25.8048 122.88-48.9472 122.88-48.9472-50.4832-48.9472-122.88z m484.9664 471.9616c-72.3968 0-122.88-25.8048-122.88-48.9472V474.624a57.5488 57.5488 0 0 1 28.672 25.9072 10.24 10.24 0 0 0 18.3296-9.216c-0.8192-1.6384-19.8656-38.912-57.2416-38.912h-266.24c19.968-24.576 32.768-69.4272 32.768-122.88s-12.8-98.304-32.768-122.88h260.608a261.9392 261.9392 0 0 1 261.632 261.7344V752.64c0 23.1424-50.3808 48.9472-122.88 48.9472z" fill="#2c2c2c" p-id="78509" data-spm-anchor-id="a313x.search_index.0.i47.1c023a816jMzOF" class="selected"></path></svg>