<?xml version="1.0" standalone="no"?><!DOCTYPE svg PUBLIC "-//W3C//DTD SVG 1.1//EN" "http://www.w3.org/Graphics/SVG/1.1/DTD/svg11.dtd"><svg t="1744550733341" class="icon" viewBox="0 0 1024 1024" version="1.1" xmlns="http://www.w3.org/2000/svg" p-id="127569" xmlns:xlink="http://www.w3.org/1999/xlink" width="128" height="128"><path d="M938.666667 789.333333V896l-0.298667 4.992A42.666667 42.666667 0 0 1 896 938.666667h-106.666667v-85.333334H853.333333v-64h85.333334z m-298.666667 0V853.333333h64v85.333334H597.333333l-4.992-0.298667A42.666667 42.666667 0 0 1 554.666667 896v-106.666667h85.333333z m-170.666667 0V896l-0.298666 4.992A42.666667 42.666667 0 0 1 426.666667 938.666667H320v-85.333334H384v-64h85.333333z m-298.666666 0V853.333333h64v85.333334H128l-4.992-0.298667A42.666667 42.666667 0 0 1 85.333333 896v-106.666667h85.333334zM896 554.666667l4.992 0.298666a42.666667 42.666667 0 0 1 37.376 37.376L938.666667 597.333333v106.666667h-85.333334V640h-64v-85.333333H896z m-192 0v85.333333H640v64h-85.333333V597.333333l0.298666-4.992A42.666667 42.666667 0 0 1 597.333333 554.666667h106.666667zM426.666667 554.666667l4.992 0.298666a42.666667 42.666667 0 0 1 37.376 37.376L469.333333 597.333333v106.666667H384V640H320v-85.333333H426.666667z m-192 0v85.333333H170.666667v64H85.333333V597.333333l0.298667-4.992A42.666667 42.666667 0 0 1 128 554.666667h106.666667z m209.792-469.333334c13.738667 0 24.874667 11.136 24.874666 24.874667v334.250667a24.874667 24.874667 0 0 1-24.874666 24.874666H110.208A24.874667 24.874667 0 0 1 85.333333 444.458667V110.208C85.333333 96.469333 96.469333 85.333333 110.208 85.333333h334.250667zM938.666667 320V426.666667l-0.298667 4.992A42.666667 42.666667 0 0 1 896 469.333333h-106.666667V384H853.333333V320h85.333334z m-298.666667 0V384h64v85.333333H597.333333l-4.992-0.298666A42.666667 42.666667 0 0 1 554.666667 426.666667V320h85.333333zM896 85.333333l4.992 0.298667a42.666667 42.666667 0 0 1 37.376 37.376L938.666667 128v106.666667h-85.333334V170.666667h-64V85.333333H896z m-192 0v85.333334H640v64h-85.333333V128l0.298666-4.992A42.666667 42.666667 0 0 1 597.333333 85.333333h106.666667z" p-id="127570"></path></svg>