<?xml version="1.0" standalone="no"?><!DOCTYPE svg PUBLIC "-//W3C//DTD SVG 1.1//EN" "http://www.w3.org/Graphics/SVG/1.1/DTD/svg11.dtd"><svg t="1744549293952" class="icon" viewBox="0 0 1024 1024" version="1.1" xmlns="http://www.w3.org/2000/svg" p-id="41977" xmlns:xlink="http://www.w3.org/1999/xlink" width="128" height="128"><path d="M806.4 268.8H217.6v473.6l0.4096 7.68c10.5472 83.8656 139.776 133.12 293.9904 133.12 160.8704 0 294.4-53.4016 294.4-140.8V268.8z m-512 76.8h435.2v396.8c0 25.7536-95.6928 64-217.6 64-118.7328 0-214.1184-36.352-217.6-63.5392l-0.0512-2.8672 0.0512-394.3936z" fill="#2c2c2c" p-id="41978"></path><path d="M294.4 345.6h435.2v396.8c0 25.7536-95.6928 64-217.6 64-118.7328 0-214.1184-36.352-217.6-63.5392l-0.0512-2.8672 0.0512-394.3936z" fill="#e6e6e6" p-id="41979" data-spm-anchor-id="a313x.search_index.0.i29.1c023a816jMzOF" class="selected"></path><path d="M512 153.6c-154.368 0-281.6 50.8928-281.6 128S357.632 409.6 512 409.6s281.6-50.8928 281.6-128S666.368 153.6 512 153.6z m0 51.2c128.4096 0 230.4 40.8064 230.4 76.8S640.4096 358.4 512 358.4s-230.4-40.8064-230.4-76.8S383.5904 204.8 512 204.8z" fill="#2c2c2c" p-id="41980"></path><path d="M512 140.8c-160.8704 0-294.4 53.4016-294.4 140.8S351.1296 422.4 512 422.4s294.4-53.4016 294.4-140.8S672.8704 140.8 512 140.8z m0 76.8c121.9072 0 217.6 38.2464 217.6 64S633.9072 345.6 512 345.6c-121.9072 0-217.6-38.2464-217.6-64S390.0928 217.6 512 217.6z" fill="#2c2c2c" p-id="41981" data-spm-anchor-id="a313x.search_index.0.i30.1c023a816jMzOF" class=""></path><path d="M512 217.6c121.9072 0 217.6 38.2464 217.6 64S633.9072 345.6 512 345.6c-121.9072 0-217.6-38.2464-217.6-64S390.0928 217.6 512 217.6z" fill="#e6e6e6" p-id="41982" data-spm-anchor-id="a313x.search_index.0.i31.1c023a816jMzOF" class="selected"></path><path d="M507.8016 83.2a38.4 38.4 0 0 1 38.0416 33.2288l0.3584 5.1712V921.6a38.4 38.4 0 0 1-76.4928 5.2224L469.4016 921.6V121.6a38.4 38.4 0 0 1 38.4-38.4z" fill="#2c2c2c" p-id="41983"></path></svg>