<?xml version="1.0" standalone="no"?><!DOCTYPE svg PUBLIC "-//W3C//DTD SVG 1.1//EN" "http://www.w3.org/Graphics/SVG/1.1/DTD/svg11.dtd"><svg t="1737378556529" class="icon" viewBox="0 0 1024 1024" version="1.1" xmlns="http://www.w3.org/2000/svg" p-id="7810" xmlns:xlink="http://www.w3.org/1999/xlink" width="200" height="200"><path d="M512 712c233.9 0 424.5-148.9 427.3-332.8C882.8 197 712.8 64.7 512 64.7S141.4 197 84.8 379.2C87.6 563.1 278.2 712 512 712z m429.8-188.6c-23.8 44.9-57.8 85.2-101 119.7C752.8 713.3 636 752 512 752s-240.8-38.7-328.8-108.9C140 608.6 106 568.3 82.1 523.4c-6.4-12.1-12-24.4-16.8-36.8-0.5 8.4-0.7 16.9-0.7 25.4C64.7 759.1 265 959.3 512 959.3S959.3 759.1 959.3 512c0-8.5-0.2-17-0.7-25.4-4.8 12.4-10.3 24.7-16.8 36.8z" p-id="7811"></path></svg>