<?xml version="1.0" standalone="no"?><!DOCTYPE svg PUBLIC "-//W3C//DTD SVG 1.1//EN" "http://www.w3.org/Graphics/SVG/1.1/DTD/svg11.dtd"><svg t="1744549103308" class="icon" viewBox="0 0 1050 1024" version="1.1" xmlns="http://www.w3.org/2000/svg" p-id="22922" xmlns:xlink="http://www.w3.org/1999/xlink" width="131.25" height="128"><path d="M545.243707 372.002906c20.793005 9.78955 48.986909 22.046067 51.701877 23.220813l445.816115 185.79261c4.907828 1.918752 5.847625 4.63372 4.620668 8.875858a8.92807 8.92807 0 0 1 0.378529 2.610547v202.878638c0 3.759187 1.00506 2.610547-2.493072 3.994136L525.612396 1019.718703 10.46016 800.876573c-3.498133-1.409695-3.994136-2.741074-3.994136-6.526367L0.213765 591.706517a9.867867 9.867867 0 0 1 0.365476-2.610546 9.136913 9.136913 0 0 1 5.508254-11.238404l453.556385-178.287287c4.751195-1.853488 73.813208-31.326561 77.650712-32.422991a82.232221 82.232221 0 0 0 7.949115 4.855617z m54.142739-185.857873v368.687512h-147.495889V186.118928H378.155665l147.495889-184.356809 147.495889 184.356809z" fill="#2c2c2c" p-id="22923" data-spm-anchor-id="a313x.search_index.0.i26.1c023a816jMzOF" class="selected"></path><path d="M1050.528075 587.37301a9.21523 9.21523 0 0 0-5.4952-11.238404L599.21676 394.427503V184.356809h73.747945L525.468816 0l-147.49589 184.356809h73.747945V400.849447L5.917809 576.082395A9.136913 9.136913 0 0 0 0.422608 587.37301a9.450179 9.450179 0 0 0-0.404634 2.610547v202.761163a9.21523 9.21523 0 0 0 5.795413 8.54954l519.629323 222.70574 519.668481-222.70574a9.202177 9.202177 0 0 0 5.782361-8.54954V589.983557a9.267441 9.267441 0 0 0-0.365477-2.610547zM516.253586 999.996023L18.487592 786.662146V598.206779L516.253586 793.736727z m4.568456-224.324279L34.490243 584.671094l417.243681-163.994544v132.393876h147.495889V414.332921l417.243681 170.338173-486.279589 191.00065c-5.456043 2.453914-5.208041 1.553275-9.371863 0z m511.667156 10.990402L534.697098 999.996023v-206.23319L1032.489198 598.206779z" fill="#FFFFFF" p-id="22924"></path><path d="M471.39134 538.438312h111.431187V168.497737h55.709067L527.100407 29.198965l-111.431186 139.298772h55.722119z" fill="#10BB88" p-id="22925" data-spm-anchor-id="a313x.search_index.0.i24.1c023a816jMzOF" class="selected"></path></svg>