<?xml version="1.0" standalone="no"?><!DOCTYPE svg PUBLIC "-//W3C//DTD SVG 1.1//EN" "http://www.w3.org/Graphics/SVG/1.1/DTD/svg11.dtd"><svg t="1745742179813" class="icon" viewBox="0 0 1024 1024" version="1.1" xmlns="http://www.w3.org/2000/svg" p-id="9401" xmlns:xlink="http://www.w3.org/1999/xlink" width="256" height="256"><path d="M154.687 328.428l-1.287 0.644v364.89L511.21 882.2V506.37l-356.524-177.94z" fill="#13227a" p-id="9402"></path><path d="M868.38 328.75L511.21 140.834 168.523 321.028l-13.836 7.4L511.21 506.37l4.184-1.93 353.95-175.045v-0.322l-0.965-0.322zM515.395 504.438l-4.184 1.931 4.184-1.93z" fill="#13227a" p-id="9403"></path><path d="M939.814 294.32a59.85 59.85 0 0 0-25.42-26.707L538.561 68.757a58.885 58.885 0 0 0-54.701 0l-375.51 197.57a58.241 58.241 0 0 0-15.445 13.835 64.355 64.355 0 0 0-9.653 12.55 59.85 59.85 0 0 0-6.436 25.741v386.128a59.206 59.206 0 0 0 32.178 52.128l375.51 197.568A59.206 59.206 0 0 0 511.21 962h4.505a56.31 56.31 0 0 0 22.846-6.114l375.51-197.569a59.206 59.206 0 0 0 32.177-52.127V318.453a56.632 56.632 0 0 0-6.435-24.133z m-70.469 35.074l-353.95 175.044-4.184 2.253V882.2L153.078 693.962V329.072l13.836-7.4 344.297-180.838L868.38 328.75z" fill="#13227a" p-id="9404"></path></svg>